<svg width="16" height="16" viewBox="0 0 16 16" fill="none" xmlns="http://www.w3.org/2000/svg">
<path fill-rule="evenodd" clip-rule="evenodd" d="M3.50004 6.70305V5.33331C3.50004 2.84803 5.51476 0.833313 8.00004 0.833313C10.4853 0.833313 12.5 2.84803 12.5 5.33331V6.70305C13.2432 6.75856 13.7272 6.89868 14.0809 7.25243C14.6667 7.83822 14.6667 8.78103 14.6667 10.6666C14.6667 12.5523 14.6667 13.4951 14.0809 14.0809C13.4951 14.6666 12.5523 14.6666 10.6667 14.6666H5.33337C3.44776 14.6666 2.50495 14.6666 1.91916 14.0809C1.33337 13.4951 1.33337 12.5523 1.33337 10.6666C1.33337 8.78103 1.33337 7.83822 1.91916 7.25243C2.27291 6.89868 2.75687 6.75856 3.50004 6.70305ZM4.50004 5.33331C4.50004 3.40032 6.06704 1.83331 8.00004 1.83331C9.93304 1.83331 11.5 3.40032 11.5 5.33331V6.66903C11.2447 6.66665 10.9677 6.66665 10.6667 6.66665H5.33337C5.03236 6.66665 4.75538 6.66665 4.50004 6.66903V5.33331ZM8.00004 8.83331C8.27618 8.83331 8.50004 9.05717 8.50004 9.33331V12C8.50004 12.2761 8.27618 12.5 8.00004 12.5C7.7239 12.5 7.50004 12.2761 7.50004 12V9.33331C7.50004 9.05717 7.7239 8.83331 8.00004 8.83331Z" fill="#AFD4AD"/>
</svg>
