<svg width="21" height="20" viewBox="0 0 21 20" fill="none" xmlns="http://www.w3.org/2000/svg">
<path d="M2.16669 10.1034C2.16669 5.4439 5.89763 1.66666 10.5 1.66666C15.1023 1.66666 18.8333 5.4439 18.8333 10.1034L18.8333 14.4729C18.8335 15.1536 18.8337 15.6205 18.714 16.0303C18.48 16.8318 17.9205 17.4948 17.175 17.8538C16.7938 18.0374 16.3383 18.11 15.6741 18.2159L15.5657 18.2332C15.3295 18.271 15.1277 18.3033 14.9602 18.3199C14.786 18.3372 14.6083 18.3426 14.4265 18.3063C13.8285 18.1871 13.3353 17.7605 13.1257 17.181C13.062 17.0049 13.0395 16.8264 13.0292 16.6494C13.0193 16.4794 13.0193 16.2725 13.0193 16.0305L13.0193 12.5534C13.0189 12.1989 13.0185 11.8938 13.0996 11.6325C13.2852 11.0347 13.7698 10.5813 14.3731 10.441C14.6368 10.3797 14.9371 10.404 15.2863 10.4324L15.3639 10.4387L15.4555 10.446C16.1086 10.4979 16.5554 10.5335 16.9347 10.6755C17.2012 10.7753 17.4485 10.9127 17.6705 11.0813V10.1034C17.6705 6.09406 14.4601 2.84388 10.5 2.84388C6.53982 2.84388 3.32947 6.09406 3.32947 10.1034V11.0813C3.55149 10.9127 3.79871 10.7753 4.06526 10.6755C4.44457 10.5335 4.89139 10.4979 5.54448 10.446L5.63601 10.4387L5.7137 10.4324C6.06281 10.404 6.3632 10.3797 6.62688 10.441C7.23012 10.5813 7.71474 11.0347 7.90034 11.6325C7.98147 11.8938 7.9811 12.1989 7.98067 12.5534L7.98061 16.0304C7.98062 16.2725 7.98062 16.4794 7.97074 16.6494C7.96047 16.8264 7.93794 17.0049 7.87424 17.181C7.66464 17.7605 7.17147 18.1871 6.57345 18.3063C6.39169 18.3426 6.21398 18.3372 6.03976 18.3199C5.87228 18.3033 5.67043 18.271 5.4342 18.2332L5.3259 18.2159C4.66168 18.11 4.20616 18.0374 3.82494 17.8538C3.07947 17.4948 2.51992 16.8318 2.28592 16.0303C2.18725 15.6924 2.17005 15.3157 2.16719 14.8122L2.16669 14.6503V10.1034Z" fill="white"/>
</svg>
