<svg width="21" height="20" viewBox="0 0 21 20" fill="none" xmlns="http://www.w3.org/2000/svg">
<path fill-rule="evenodd" clip-rule="evenodd" d="M3.97631 2.64297C3 3.61929 3 5.19063 3 8.33333V11.6667C3 14.8094 3 16.3807 3.97631 17.357C4.95262 18.3333 6.52397 18.3333 9.66667 18.3333H11.3333C14.476 18.3333 16.0474 18.3333 17.0237 17.357C18 16.3807 18 14.8094 18 11.6667V8.33333C18 5.19063 18 3.61929 17.0237 2.64297C16.0474 1.66666 14.476 1.66666 11.3333 1.66666H9.66667C6.52397 1.66666 4.95262 1.66666 3.97631 2.64297ZM7.16667 7.70833C6.82149 7.70833 6.54167 7.98815 6.54167 8.33333C6.54167 8.67851 6.82149 8.95833 7.16667 8.95833H13.8333C14.1785 8.95833 14.4583 8.67851 14.4583 8.33333C14.4583 7.98815 14.1785 7.70833 13.8333 7.70833H7.16667ZM7.16667 11.0417C6.82149 11.0417 6.54167 11.3215 6.54167 11.6667C6.54167 12.0118 6.82149 12.2917 7.16667 12.2917H11.3333C11.6785 12.2917 11.9583 12.0118 11.9583 11.6667C11.9583 11.3215 11.6785 11.0417 11.3333 11.0417H7.16667Z" fill="white"/>
</svg>
